<?xml version="1.0" encoding="UTF-8"?>
<svg version="1.1" xmlns="http://www.w3.org/2000/svg" width="528" height="114">
<path d="M0 0 C2.08326948 -0.00437406 4.16441934 -0.04072009 6.24731445 -0.07861328 C7.56666992 -0.08248047 8.88602539 -0.08634766 10.24536133 -0.09033203 C11.4505542 -0.0985498 12.65574707 -0.10676758 13.89746094 -0.11523438 C17.77251 0.46261108 19.34073302 1.71390602 22.15551758 4.37060547 C22.91864258 4.98935547 23.68176758 5.60810547 24.46801758 6.24560547 C26.69279707 9.04717964 26.47225308 10.88651492 26.15551758 14.37060547 C28.13551758 14.37060547 30.11551758 14.37060547 32.15551758 14.37060547 C32.19290039 13.76732422 32.2302832 13.16404297 32.26879883 12.54248047 C32.94391715 4.33515971 32.94391715 4.33515971 36.15551758 1.37060547 C41.20518935 -0.31261845 46.46934788 -0.05118775 51.75976562 -0.14428711 C53.1401175 -0.17583154 54.52020223 -0.22349059 55.89941406 -0.2878418 C67.32644272 -0.81279705 67.32644272 -0.81279705 71.86108398 2.12109375 C76.78955758 6.98360518 78.27613133 9.94279288 78.33251953 16.85229492 C78.33909073 17.51755188 78.34566193 18.18280884 78.35243225 18.8682251 C78.37216919 21.07344676 78.38382895 23.27860029 78.39379883 25.48388672 C78.39787436 26.23705862 78.40194988 26.99023052 78.40614891 27.76622581 C78.42701188 31.75308331 78.44131228 35.73990636 78.45068359 39.72680664 C78.46174543 43.84282328 78.49614141 47.95829889 78.53585529 52.07412434 C78.56201444 55.24060565 78.57037479 58.40695796 78.57396507 61.57353783 C78.57883332 63.09058471 78.59045424 64.60762574 78.60900307 66.12456703 C78.63338018 68.25039 78.63243312 70.37481217 78.62548828 72.50073242 C78.63135452 73.70937454 78.63722076 74.91801666 78.64326477 76.1632843 C78.05553599 80.02806297 76.96681639 81.68878294 74.15551758 84.37060547 C71.23969446 84.80090754 68.98013413 84.94063737 66.09301758 84.80810547 C65.01310547 84.7994043 65.01310547 84.7994043 63.91137695 84.79052734 C60.16636921 84.70359587 58.33304908 84.48895981 55.15551758 82.37060547 C55.15551758 81.71060547 55.15551758 81.05060547 55.15551758 80.37060547 C54.19645508 79.90654297 54.19645508 79.90654297 53.21801758 79.43310547 C51.15551758 78.37060547 51.15551758 78.37060547 50.15551758 77.37060547 C50.06204843 75.71322103 50.03806781 74.05185903 50.04199219 72.3918457 C50.04210548 70.80030922 50.04210548 70.80030922 50.04222107 69.17662048 C50.04738235 68.02247147 50.05254364 66.86832245 50.05786133 65.67919922 C50.05927628 64.50422379 50.06069122 63.32924835 50.06214905 62.1186676 C50.06776766 58.34845483 50.08032332 54.57830043 50.09301758 50.80810547 C50.09803018 48.2592782 50.1025935 45.71045 50.10668945 43.16162109 C50.11774313 36.89792914 50.13449936 30.63427147 50.15551758 24.37060547 C48.15566269 25.21511137 48.15566269 25.21511137 46.15551758 26.37060547 C44.92400514 30.05749613 45.0592613 33.72653198 45.10864258 37.58544922 C45.11702148 38.82020996 45.12540039 40.0549707 45.1340332 41.32714844 C45.14092163 42.31240509 45.14092163 42.31240509 45.14794922 43.31756592 C45.16928594 49.1054965 45.07058926 54.89203513 44.94799805 60.6784668 C44.91937644 62.19755025 44.89837274 63.71679406 44.88452148 65.23608398 C44.86310786 67.47047657 44.81660104 69.70314002 44.76489258 71.93701172 C44.74394531 73.24613525 44.72299805 74.55525879 44.70141602 75.90405273 C44.07128549 79.90549427 43.07093995 81.59672425 40.15551758 84.37060547 C37.31280679 84.94899251 35.23958976 85.18215168 32.40551758 85.12060547 C31.69194092 85.11319336 30.97836426 85.10578125 30.24316406 85.09814453 C24.53536187 84.82445154 21.36078069 83.32459038 17.44067383 79.29248047 C15.1357321 75.84557673 15.03150785 72.48637905 15.04199219 68.41845703 C15.04206772 67.43774231 15.04214325 66.45702759 15.04222107 65.44659424 C15.04738235 64.39542419 15.05254364 63.34425415 15.05786133 62.26123047 C15.05927628 61.17928406 15.06069122 60.09733765 15.06214905 58.98260498 C15.06774439 55.52857696 15.08029607 52.07461388 15.09301758 48.62060547 C15.09803318 46.27815849 15.10259598 43.93571049 15.10668945 41.59326172 C15.1177123 35.85235417 15.13444584 30.11148446 15.15551758 24.37060547 C12.04072852 27.01827858 12.04072852 27.01827858 10.66345215 30.75413513 C10.66663452 31.63618118 10.66981689 32.51822723 10.6730957 33.42700195 C10.66628784 34.43161972 10.65947998 35.43623749 10.65246582 36.47129822 C10.6637854 37.55053055 10.67510498 38.62976288 10.68676758 39.74169922 C10.67971802 40.85617935 10.67266846 41.97065948 10.66540527 43.11891174 C10.63586791 47.88725585 10.6525592 52.65519391 10.66479492 57.42358398 C10.66717301 60.9048719 10.64626879 64.38549386 10.62426758 67.86669922 C10.63558716 68.94390732 10.64690674 70.02111542 10.65856934 71.13096619 C10.6280767 75.64480129 10.60422161 78.56343264 8.38305664 82.55908203 C5.97623776 84.51640295 5.09181509 84.9742531 2.04614258 84.85888672 C0.91499023 84.8347168 0.91499023 84.8347168 -0.23901367 84.81005859 C-1.01631836 84.76816406 -1.79362305 84.72626953 -2.59448242 84.68310547 C-3.38725586 84.66054687 -4.1800293 84.63798828 -4.99682617 84.61474609 C-6.94685862 84.55601018 -8.89591554 84.46633201 -10.84448242 84.37060547 C-11.13194336 83.73509766 -11.4194043 83.09958984 -11.71557617 82.44482422 C-13.081761 79.93463687 -14.26022654 79.45432568 -16.84448242 78.37060547 C-18.71922586 76.49586203 -18.03824945 73.30512171 -18.08154297 70.80297852 C-18.09465515 70.11675415 -18.10776733 69.43052979 -18.12127686 68.72351074 C-18.16323124 66.44317305 -18.19764866 64.16280007 -18.23120117 61.88232422 C-18.25684693 60.30149619 -18.28263097 58.7206704 -18.30854797 57.1398468 C-18.36160197 53.82008145 -18.41051147 50.50028294 -18.45703125 47.18041992 C-18.51731846 42.92641665 -18.59154922 38.67278336 -18.66940594 34.41907024 C-18.72702716 31.15150508 -18.77531601 27.88385036 -18.82099342 24.6160984 C-18.84439978 23.04796872 -18.87115385 21.47988532 -18.90131187 19.91187096 C-18.94250474 17.71673241 -18.97066602 15.52179121 -18.99560547 13.32641602 C-19.01479538 12.07700729 -19.03398529 10.82759857 -19.05375671 9.54032898 C-18.85330896 6.50429448 -18.51530612 4.87186708 -16.84448242 2.37060547 C-12.09862209 -1.05752782 -5.58019543 -0.00131438 0 0 Z " fill="#02225A" transform="translate(34.844482421875,11.62939453125)"/>
<path d="M0 0 C0.94843781 -0.01606293 1.89687561 -0.03212585 2.87405396 -0.04867554 C7.21404061 -0.09346274 11.55387873 -0.13420677 15.89404297 -0.15722656 C18.17507149 -0.17375106 20.45604898 -0.20099429 22.73681641 -0.23925781 C26.04210005 -0.29436185 29.34617272 -0.31595431 32.65185547 -0.33056641 C33.65950958 -0.35323578 34.6671637 -0.37590515 35.70535278 -0.39926147 C43.74798011 -0.37556605 50.30883703 1.66357443 56.35427856 7.13760376 C62.89088038 13.95908893 65.23786044 21.828948 65.20654297 31.19287109 C64.36190142 34.831327 63.83180598 36.56760808 61.20654297 39.19287109 C60.05154297 39.44037109 58.89654297 39.68787109 57.70654297 39.94287109 C56.55154297 40.35537109 55.39654297 40.76787109 54.20654297 41.19287109 C52.67507919 44.19881531 52.67507919 44.19881531 52.20654297 47.19287109 C53.3274231 47.07745972 53.3274231 47.07745972 54.47094727 46.9597168 C57.20654297 47.19287109 57.20654297 47.19287109 59.2019043 48.72875977 C64.46063153 55.23360346 65.21187439 60.2770688 64.89404297 68.50537109 C64.89597656 69.5759375 64.89791016 70.64650391 64.89990234 71.74951172 C64.75919532 79.4981018 64.75919532 79.4981018 62.38085938 82.48803711 C58.43516679 85.58176845 53.6684466 84.91994327 48.86669922 84.72412109 C44.44817444 84.08279839 42.3216478 82.89967469 39.30810547 79.70068359 C37.24065821 76.87077352 37.03580656 74.85826473 36.89013672 71.40380859 C36.84824219 70.46279297 36.80634766 69.52177734 36.76318359 68.55224609 C36.72386719 67.56740234 36.68455078 66.58255859 36.64404297 65.56787109 C36.60085937 64.57529297 36.55767578 63.58271484 36.51318359 62.56005859 C36.40693228 60.10447272 36.30489333 57.64878406 36.20654297 55.19287109 C33.41462092 55.13906532 30.62372887 55.09929441 27.83154297 55.06787109 C27.03748047 55.05111328 26.24341797 55.03435547 25.42529297 55.01708984 C23.35162281 54.99951637 21.27771055 55.08951942 19.20654297 55.19287109 C16.69536236 57.7040517 16.95662528 58.55573052 16.93310547 62.02490234 C16.91248047 62.98847656 16.89185547 63.95205078 16.87060547 64.94482422 C16.84471443 66.97338673 16.82639544 69.00206104 16.81591797 71.03076172 C16.63749199 78.47013367 16.63749199 78.47013367 14.33154297 82.33740234 C10.93964813 85.29907522 8.09063012 85.27223202 3.70263672 85.08740234 C-3.25703728 84.55048426 -3.25703728 84.55048426 -6.79345703 82.19287109 C-6.79345703 81.53287109 -6.79345703 80.87287109 -6.79345703 80.19287109 C-7.43283203 79.90412109 -8.07220703 79.61537109 -8.73095703 79.31787109 C-10.79345703 78.19287109 -10.79345703 78.19287109 -11.79345703 76.19287109 C-11.90088065 73.96776431 -11.94237062 71.73938361 -11.95458984 69.51171875 C-11.95955475 68.82534836 -11.96451965 68.13897797 -11.96963501 67.43180847 C-11.98426279 65.15684005 -11.99105964 62.88194136 -11.99658203 60.60693359 C-12.00233301 59.027537 -12.00809075 57.44814044 -12.01385498 55.8687439 C-12.02436674 52.55490798 -12.03020824 49.24109634 -12.03369141 45.92724609 C-12.03917634 41.68119822 -12.06320336 37.435471 -12.09166336 33.1895237 C-12.11028834 29.9261481 -12.11549526 26.66284976 -12.11702728 23.39942551 C-12.12005471 21.83412295 -12.1280863 20.26882177 -12.14121246 18.70357132 C-12.1582705 16.51307036 -12.15639378 14.32335295 -12.14990234 12.1328125 C-12.15354797 10.88641998 -12.1571936 9.64002747 -12.16094971 8.35586548 C-11.76308007 4.93141785 -11.28553713 3.54219823 -8.79345703 1.19287109 C-5.90970483 0.06567048 -3.0755979 0.04757251 0 0 Z M17.46972656 25.54541016 C15.74329786 27.79704155 15.98263071 29.4312866 16.20654297 32.19287109 C18.97763604 32.24679507 21.74768115 32.28650564 24.51904297 32.31787109 C25.30472656 32.33462891 26.09041016 32.35138672 26.89990234 32.36865234 C27.65722656 32.37509766 28.41455078 32.38154297 29.19482422 32.38818359 C30.23956909 32.40389404 30.23956909 32.40389404 31.30541992 32.41992188 C33.53771597 32.29861704 33.53771597 32.29861704 36.20654297 30.19287109 C37.02585386 27.68111035 37.02585386 27.68111035 37.20654297 25.19287109 C35.10453997 23.09086809 30.72355714 23.96177315 27.83154297 23.94287109 C27.05037109 23.92224609 26.26919922 23.90162109 25.46435547 23.88037109 C21.18199088 23.72696031 21.18199088 23.72696031 17.46972656 25.54541016 Z " fill="#03245B" transform="translate(130.79345703125,11.80712890625)"/>
<path d="M0 0 C0.84195419 -0.01283524 1.68390839 -0.02567047 2.55137634 -0.03889465 C3.46069412 -0.04628159 4.3700119 -0.05366852 5.30688477 -0.0612793 C6.72276634 -0.07338692 6.72276634 -0.07338692 8.16725159 -0.08573914 C10.17040169 -0.09957773 12.17357534 -0.11030089 14.17675781 -0.11816406 C16.20840449 -0.12962952 18.24002235 -0.149994 20.27148438 -0.1796875 C47.79404961 -0.5818868 47.79404961 -0.5818868 57.31079102 8.36450195 C63.57826516 14.56144183 65.95969653 19.80616093 66.31079102 28.61450195 C66.04409212 35.75703172 64.78578576 41.83556735 59.93969727 47.27856445 C50.47390901 55.97492191 39.96177404 55.33998566 27.79321289 55.05004883 C26.50833984 55.03361328 26.50833984 55.03361328 25.19750977 55.0168457 C24.42624756 55.00000732 23.65498535 54.98316895 22.86035156 54.96582031 C20.49875824 55.04810859 20.49875824 55.04810859 17.81079102 57.17700195 C17.35189944 59.31655535 17.35189944 59.31655535 17.40454102 61.7902832 C17.38262695 62.70874023 17.36071289 63.62719727 17.33813477 64.57348633 C17.32911133 65.53577148 17.32008789 66.49805664 17.31079102 67.48950195 C17.19990235 79.17241521 17.19990235 79.17241521 13.81079102 83.17700195 C9.08548813 86.32720387 4.53820921 85.50461575 -0.81420898 84.48950195 C-5.15730348 82.80052076 -9.02935031 80.49671929 -11.18920898 76.17700195 C-11.30177361 73.95201533 -11.34859322 71.72361214 -11.36621094 69.49584961 C-11.37278214 68.80947922 -11.37935333 68.12310883 -11.38612366 67.41593933 C-11.40585997 65.14097997 -11.41751918 62.86608659 -11.42749023 60.59106445 C-11.43156576 59.81457928 -11.43564129 59.0380941 -11.43984032 58.23807907 C-11.46070132 54.12918106 -11.47500354 50.02031647 -11.484375 45.91137695 C-11.49544668 41.66523346 -11.52985466 37.41961299 -11.5695467 33.17365456 C-11.59567611 29.9102785 -11.60406347 26.64702784 -11.60765648 23.38355637 C-11.61253109 21.81823566 -11.62417002 20.25292086 -11.64269447 18.68770218 C-11.66701198 16.49702583 -11.66613553 14.307713 -11.65917969 12.11694336 C-11.66504593 10.87055084 -11.67091217 9.62415833 -11.67695618 8.33999634 C-11.09748904 4.58220678 -10.18711041 3.43953947 -7.18920898 1.17700195 C-4.46672286 0.26950658 -2.80606767 0.03738976 0 0 Z M17.23266602 26.5090332 C16.76344727 27.38946289 16.29422852 28.26989258 15.81079102 29.17700195 C16.14079102 30.16700195 16.47079102 31.15700195 16.81079102 32.17700195 C19.39524875 32.28518856 21.97516454 32.36437432 24.56079102 32.42700195 C25.65520508 32.47727539 25.65520508 32.47727539 26.77172852 32.52856445 C30.32721102 32.59320959 32.42100846 32.44394394 35.38891602 30.41137695 C37.06210323 28.29738655 37.06210323 28.29738655 36.56079102 25.92700195 C36.31329102 25.34950195 36.06579102 24.77200195 35.81079102 24.17700195 C33.22570431 24.04173579 30.64770349 23.94282543 28.06079102 23.86450195 C27.33118164 23.82260742 26.60157227 23.78071289 25.84985352 23.73754883 C21.9123108 23.64805922 20.19858556 23.82622416 17.23266602 26.5090332 Z " fill="#06265D" transform="translate(213.189208984375,11.822998046875)"/>
<path d="M0 0 C0.33 0 0.66 0 1 0 C1.00808685 0.89758026 1.01617371 1.79516052 1.02450562 2.71994019 C1.10235018 11.16650945 1.18960979 19.61291711 1.28752708 28.05927849 C1.33753668 32.40195376 1.38386609 36.74460414 1.421875 41.08740234 C1.45866919 45.276109 1.5050127 49.4646098 1.55806351 53.65314102 C1.57663878 55.2535352 1.59173509 56.85397357 1.60334396 58.45443344 C1.62015324 60.69102954 1.64917413 62.92715091 1.68115234 65.16357422 C1.69447601 66.43820526 1.70779968 67.7128363 1.7215271 69.02609253 C1.69193792 72.11733979 1.69193792 72.11733979 4 74 C7.02304308 74.35870143 7.02304308 74.35870143 10.4375 74.3125 C11.59121094 74.32925781 12.74492187 74.34601563 13.93359375 74.36328125 C16.9238256 74.26139053 16.9238256 74.26139053 18.66760254 72.79295349 C20.44143743 70.40597547 20.37804788 68.90884413 20.38476562 65.94946289 C20.39487671 64.92152115 20.40498779 63.89357941 20.41540527 62.83448792 C20.41238403 61.72508347 20.40936279 60.61567902 20.40625 59.47265625 C20.41708618 58.33219345 20.42792236 57.19173065 20.43908691 56.01670837 C20.4734276 52.36524798 20.48895855 48.71410087 20.5 45.0625 C20.5145382 40.26141584 20.54817237 35.46103483 20.59375 30.66015625 C20.59072876 29.55277603 20.58770752 28.44539581 20.58459473 27.30445862 C20.59470581 26.27336472 20.60481689 25.24227081 20.61523438 24.17993164 C20.61728882 23.27408829 20.61934326 22.36824493 20.62145996 21.43495178 C21.08009714 18.48477662 21.91038363 17.11509352 24 15 C27.4375 14.4375 27.4375 14.4375 31 15 C33.67289681 17.1956151 34.85071868 19.00824667 35.36871338 22.44955444 C35.52742058 25.57005232 35.55332456 28.66845404 35.5390625 31.79296875 C35.55085541 32.935345 35.56264832 34.07772125 35.57479858 35.25471497 C35.61008119 38.8991157 35.61923367 42.54294232 35.625 46.1875 C35.64131419 49.84259755 35.66327275 53.4974373 35.69662476 57.15242004 C35.71633678 59.42602377 35.72558088 61.69974619 35.72354126 63.97343445 C35.73050018 64.99822403 35.73745911 66.02301361 35.74462891 67.07885742 C35.74588776 67.98310959 35.74714661 68.88736176 35.7484436 69.8190155 C35.79527851 72.20956425 35.79527851 72.20956425 38 74 C41.28764015 74.32057871 41.28764015 74.32057871 45 74.25 C46.8871875 74.25773437 46.8871875 74.25773437 48.8125 74.265625 C52.09282361 74.33780455 52.09282361 74.33780455 54 72 C54.30351816 69.68339706 54.30351816 69.68339706 54.25537109 66.97119141 C54.26580948 65.39913437 54.26580948 65.39913437 54.27645874 63.7953186 C54.27546173 62.65887909 54.27446472 61.52243958 54.2734375 60.3515625 C54.29372669 57.96093282 54.31457748 55.57030785 54.3359375 53.1796875 C54.3585564 49.39839715 54.37501192 45.61729243 54.38085938 41.8359375 C54.39036086 38.19496823 54.42411429 34.55484343 54.4609375 30.9140625 C54.45589203 29.78167145 54.45084656 28.6492804 54.44564819 27.48257446 C54.45891144 26.42823212 54.47217468 25.37388977 54.48583984 24.28759766 C54.48868988 23.36097321 54.49153992 22.43434875 54.49447632 21.47964478 C55.15731754 18.22834156 56.42593812 17.03214645 59 15 C62.0625 14.4375 62.0625 14.4375 65 15 C66.875 17.5 66.875 17.5 68 20 C67.0409375 20.3403125 67.0409375 20.3403125 66.0625 20.6875 C63.79105237 21.81230825 63.79105237 21.81230825 63.37402344 24.19360352 C62.96741824 27.24446952 62.9137368 30.13683916 62.953125 33.21484375 C62.96150391 34.44960449 62.96988281 35.68436523 62.97851562 36.95654297 C62.98540405 37.94179962 62.98540405 37.94179962 62.99243164 38.94696045 C63.01376836 44.73489103 62.91507168 50.52142966 62.79248047 56.30786133 C62.76385886 57.82694478 62.74285517 59.34618859 62.72900391 60.86547852 C62.70759028 63.0998711 62.66108346 65.33253455 62.609375 67.56640625 C62.58842773 68.87552979 62.56748047 70.18465332 62.54589844 71.53344727 C61.91576792 75.5348888 60.91542237 77.22611878 58 80 C55.15728921 80.57838704 53.08407218 80.81154621 50.25 80.75 C49.53642334 80.74258789 48.82284668 80.73517578 48.08764648 80.72753906 C42.37984429 80.45384607 39.20526311 78.95398491 35.28515625 74.921875 C32.98021452 71.47497126 32.87599027 68.11577359 32.88647461 64.04785156 C32.88655014 63.06713684 32.88662567 62.08642212 32.88670349 61.07598877 C32.89186478 60.02481873 32.89702606 58.97364868 32.90234375 57.890625 C32.9037587 56.80867859 32.90517365 55.72673218 32.90663147 54.61199951 C32.91222682 51.1579715 32.9247785 47.70400841 32.9375 44.25 C32.9425156 41.90755302 32.9470784 39.56510502 32.95117188 37.22265625 C32.96219472 31.4817487 32.97892826 25.74087899 33 20 C29.88521094 22.64767311 29.88521094 22.64767311 28.50793457 26.38352966 C28.51111694 27.26557571 28.51429932 28.14762177 28.51757812 29.05639648 C28.51077026 30.06101425 28.5039624 31.06563202 28.49694824 32.10069275 C28.50826782 33.17992508 28.5195874 34.25915741 28.53125 35.37109375 C28.52420044 36.48557388 28.51715088 37.60005402 28.5098877 38.74830627 C28.48035033 43.51665038 28.49704162 48.28458844 28.50927734 53.05297852 C28.51165544 56.53426643 28.49075122 60.01488839 28.46875 63.49609375 C28.48006958 64.57330185 28.49138916 65.65050995 28.50305176 66.76036072 C28.47255912 71.27419582 28.44870404 74.19282717 26.22753906 78.18847656 C23.82072018 80.14579748 22.93629751 80.60364763 19.890625 80.48828125 C18.75947266 80.46411133 18.75947266 80.46411133 17.60546875 80.43945312 C16.82816406 80.39755859 16.05085938 80.35566406 15.25 80.3125 C14.45722656 80.28994141 13.66445313 80.26738281 12.84765625 80.24414062 C10.8976238 80.18540471 8.94856688 80.09572654 7 80 C6.71253906 79.36449219 6.42507812 78.72898437 6.12890625 78.07421875 C4.76272142 75.5640314 3.58425588 75.08372021 1 74 C-0.87843412 72.12156588 -0.18409125 68.90533819 -0.22119141 66.40063477 C-0.2326973 65.71119781 -0.24420319 65.02176086 -0.25605774 64.31143188 C-0.29288316 62.02146937 -0.32244498 59.73147884 -0.3515625 57.44140625 C-0.37466605 55.85578503 -0.39805626 54.27016797 -0.42172241 52.68455505 C-0.47024522 49.3563896 -0.51516587 46.02819943 -0.55761719 42.69995117 C-0.61241035 38.42791456 -0.67624137 34.15606968 -0.74279213 29.884202 C-0.79280948 26.60809526 -0.83795945 23.33193535 -0.88163376 20.05573845 C-0.90324073 18.48040543 -0.92639422 16.90509285 -0.9510994 15.32980537 C-0.9848916 13.12948848 -1.01212538 10.92918655 -1.03759766 8.72875977 C-1.05456696 7.47490982 -1.07153625 6.22105988 -1.08901978 4.92921448 C-1 2 -1 2 0 0 Z " fill="#A1AEC1" transform="translate(17,16)"/>
<path d="M0 0 C2.05078125 0.03255208 4.1015625 0.06510417 6.15234375 0.09765625 C18.15234375 25.41177729 18.15234375 25.41177729 18.15234375 29.09765625 C18.81234375 29.09765625 19.47234375 29.09765625 20.15234375 29.09765625 C20.35859375 28.19015625 20.56484375 27.28265625 20.77734375 26.34765625 C22.10311175 21.66011938 24.40060692 17.50329916 26.62109375 13.1875 C28.73393627 8.92408563 30.4783404 4.54853574 32.15234375 0.09765625 C34.79234375 0.09765625 37.43234375 0.09765625 40.15234375 0.09765625 C41.16259936 9.00955395 41.26270114 17.88760171 41.27734375 26.84765625 C41.28185547 28.0269873 41.28636719 29.20631836 41.29101562 30.42138672 C41.28908203 31.52627441 41.28714844 32.63116211 41.28515625 33.76953125 C41.28402832 34.77081055 41.28290039 35.77208984 41.28173828 36.80371094 C41.15234375 39.09765625 41.15234375 39.09765625 40.15234375 40.09765625 C38.17234375 40.09765625 36.19234375 40.09765625 34.15234375 40.09765625 C33.82234375 32.17765625 33.49234375 24.25765625 33.15234375 16.09765625 C32.10046875 18.69640625 32.10046875 18.69640625 31.02734375 21.34765625 C28.36504296 27.75548624 25.3327949 33.93348288 22.15234375 40.09765625 C20.17234375 40.09765625 18.19234375 40.09765625 16.15234375 40.09765625 C12.6278164 33.1841603 9.37944131 26.15424291 6.15234375 19.09765625 C5.82234375 19.09765625 5.49234375 19.09765625 5.15234375 19.09765625 C4.82234375 26.02765625 4.49234375 32.95765625 4.15234375 40.09765625 C1.84234375 40.09765625 -0.46765625 40.09765625 -2.84765625 40.09765625 C-2.872304 34.56177092 -2.89049121 29.02591725 -2.90258789 23.48999023 C-2.90762869 21.60521895 -2.91446123 19.7204516 -2.9230957 17.83569336 C-2.93517242 15.13263989 -2.94088693 12.42963794 -2.9453125 9.7265625 C-2.95047379 8.87864639 -2.95563507 8.03073029 -2.96095276 7.15711975 C-2.9611482 5.13694557 -2.90971836 3.11687691 -2.84765625 1.09765625 C-1.84765625 0.09765625 -1.84765625 0.09765625 0 0 Z " fill="#37517C" transform="translate(471.84765625,55.90234375)"/>
<path d="M0 0 C5.99509773 1.01930073 10.45299557 5.8341938 13.875 10.625 C17.83978258 18.99509657 18.58247248 27.46856402 15.5 36.375 C12.75230033 42.37887045 8.21306046 46.23281675 2.5 49.375 C-5.29109254 51.32277313 -13.05588904 51.06274777 -21.01757812 50.87304688 C-22.30245117 50.85661133 -22.30245117 50.85661133 -23.61328125 50.83984375 C-24.38454346 50.82300537 -25.15580566 50.80616699 -25.95043945 50.78881836 C-28.31203277 50.87110663 -28.31203277 50.87110663 -31 53 C-31.45889158 55.1395534 -31.45889158 55.1395534 -31.40625 57.61328125 C-31.42816406 58.53173828 -31.45007813 59.45019531 -31.47265625 60.39648438 C-31.48167969 61.35876953 -31.49070313 62.32105469 -31.5 63.3125 C-31.61088867 74.99541326 -31.61088867 74.99541326 -35 79 C-39.72530288 82.15020192 -44.27258181 81.3276138 -49.625 80.3125 C-53.62257154 78.75788884 -55.87260847 76.898558 -59 74 C-56.98944672 74 -54.97876261 74.0236885 -52.96875 74.0703125 C-51.8240625 74.08835937 -50.679375 74.10640625 -49.5 74.125 C-48.3553125 74.14820312 -47.210625 74.17140625 -46.03125 74.1953125 C-42.82154874 74.242181 -42.82154874 74.242181 -40 72 C-39.55641076 69.64673553 -39.55641076 69.64673553 -39.62890625 66.9140625 C-39.61150391 65.90085937 -39.59410156 64.88765625 -39.57617188 63.84375 C-39.56709053 61.70574211 -39.56185374 59.56771428 -39.56054688 57.4296875 C-39.54185547 56.41390625 -39.52316406 55.398125 -39.50390625 54.3515625 C-39.50205322 53.42166504 -39.5002002 52.49176758 -39.49829102 51.53369141 C-38.8339595 48.1557235 -37.77467187 47.00840822 -35 45 C-32.19433594 44.50170898 -32.19433594 44.50170898 -28.984375 44.49609375 C-27.81519531 44.47740234 -26.64601562 44.45871094 -25.44140625 44.43945312 C-24.22324219 44.43880859 -23.00507813 44.43816406 -21.75 44.4375 C-9.11076276 44.71702281 -9.11076276 44.71702281 1.98828125 39.38671875 C3.36819199 37.61603683 4.7170617 35.84247526 6 34 C6.61875 33.13375 7.2375 32.2675 7.875 31.375 C10.06820779 24.79537663 9.82700565 17.80263025 7.875 11.1875 C5.53734303 7.21348315 2.88348613 3.59269307 0 0 Z " fill="#97A5BA" transform="translate(262,16)"/>
<path d="M0 0 C4.12536512 -0.19936709 8.24882865 -0.34365032 12.37792969 -0.43945312 C13.77881763 -0.47942324 15.17937735 -0.53382527 16.57910156 -0.60351562 C28.18390201 -1.16637328 28.18390201 -1.16637328 32.71875 1.74609375 C37.64003942 6.60586705 39.12068873 9.58137563 39.17700195 16.48168945 C39.18685875 17.47957489 39.18685875 17.47957489 39.19691467 18.49761963 C39.21665161 20.70284129 39.22831138 22.90799482 39.23828125 25.11328125 C39.24235678 25.86645315 39.2464323 26.61962505 39.25063133 27.39562035 C39.2714943 31.38247784 39.2857947 35.36930089 39.29516602 39.35620117 C39.30622785 43.47221781 39.34062383 47.58769343 39.38033772 51.70351887 C39.40649687 54.87000018 39.41485721 58.03635249 39.41844749 61.20293236 C39.42331575 62.71997924 39.43493667 64.23702027 39.45348549 65.75396156 C39.4778626 67.87978453 39.47691555 70.0042067 39.4699707 72.13012695 C39.47583694 73.33876907 39.48170319 74.54741119 39.48774719 75.79267883 C38.90001842 79.6574575 37.81129881 81.31817747 35 84 C32.08417688 84.43030207 29.82461655 84.5700319 26.9375 84.4375 C25.85758789 84.42879883 25.85758789 84.42879883 24.75585938 84.41992188 C21.01085164 84.3329904 19.17753151 84.11835434 16 82 C16 81.34 16 80.68 16 80 C15.360625 79.690625 14.72125 79.38125 14.0625 79.0625 C12 78 12 78 11 77 C10.90653085 75.34261557 10.88255023 73.68125356 10.88647461 72.02124023 C10.88655014 70.96021591 10.88662567 69.89919159 10.88670349 68.80601501 C10.89186478 67.651866 10.89702606 66.49771698 10.90234375 65.30859375 C10.9037587 64.13361832 10.90517365 62.95864288 10.90663147 61.74806213 C10.91225008 57.97784936 10.92480574 54.20769496 10.9375 50.4375 C10.9425126 47.88867273 10.94707592 45.33984453 10.95117188 42.79101562 C10.96222556 36.52732367 10.97898179 30.26366601 11 24 C11.33 24 11.66 24 12 24 C12.01213028 24.97052811 12.01213028 24.97052811 12.02450562 25.96066284 C12.11035872 32.67629128 12.20985315 39.39161796 12.31738281 46.10693359 C12.35573873 48.61534571 12.39057975 51.12381408 12.421875 53.63232422 C12.46738209 57.23165029 12.5254 60.83058683 12.5859375 64.4296875 C12.59748871 65.55680145 12.60903992 66.68391541 12.62094116 67.84518433 C12.64081085 68.88611237 12.66068054 69.92704041 12.68115234 70.99951172 C12.69447601 71.91884491 12.70779968 72.8381781 12.7215271 73.78536987 C12.79576051 76.20466952 12.79576051 76.20466952 15 78 C18.28764015 78.32057871 18.28764015 78.32057871 22 78.25 C23.8871875 78.25773437 23.8871875 78.25773437 25.8125 78.265625 C29.09282361 78.33780455 29.09282361 78.33780455 31 76 C31.31510081 72.89662434 31.31510081 72.89662434 31.2746582 69.1953125 C31.27976913 68.49597595 31.28488007 67.7966394 31.29014587 67.07611084 C31.30407311 64.75898742 31.30308298 62.44216035 31.30078125 60.125 C31.30466613 58.51839079 31.30900037 56.91178262 31.31376648 55.30517578 C31.32123517 51.93583854 31.3209325 48.56660607 31.31567383 45.19726562 C31.30987468 40.87252471 31.3268175 36.54821143 31.3500185 32.22354126 C31.36472565 28.90532917 31.36563175 25.58722084 31.36250877 22.26898193 C31.36302339 20.67412467 31.36828737 19.07926182 31.37832069 17.48443604 C31.39061151 15.25756749 31.38393904 13.03154181 31.37231445 10.8046875 C31.37294388 9.53608887 31.3735733 8.26749023 31.3742218 6.96044922 C31.25072861 5.98350098 31.12723541 5.00655273 31 4 C27.46435537 1.64290358 25.77974745 1.69990265 21.58203125 1.5859375 C20.32841797 1.54726562 19.07480469 1.50859375 17.78320312 1.46875 C16.47287109 1.4378125 15.16253906 1.406875 13.8125 1.375 C12.4771884 1.33680662 11.14190108 1.29775409 9.80664062 1.2578125 C6.53790112 1.16340847 3.26916936 1.07782983 0 1 C0 0.67 0 0.34 0 0 Z " fill="#A9B5C6" transform="translate(74,12)"/>
<path d="M0 0 C1 1 1 1 1.0625 3.5625 C1.041875 4.366875 1.02125 5.17125 1 6 C-0.299375 5.835 -1.59875 5.67 -2.9375 5.5 C-11.87823839 4.21061533 -11.87823839 4.21061533 -20 7 C-20.91666667 9.41666667 -20.91666667 9.41666667 -21 12 C-20.01 13.485 -20.01 13.485 -19 15 C-15.85184921 15.43655245 -15.85184921 15.43655245 -12.25 15.4375 C-6.49854226 15.72064869 -3.20474664 16.0355246 1 20 C2.98182686 23.96365372 2.54811522 28.6898212 2 33 C-1.02510187 37.35970564 -4.00010842 38.61383151 -9 40 C-12.21875 40.265625 -12.21875 40.265625 -15.5 40.25 C-17.12421875 40.25773437 -17.12421875 40.25773437 -18.78125 40.265625 C-22.13574256 39.98879794 -24.86306413 39.19052385 -28 38 C-28 36.02 -28 34.04 -28 32 C-21.25 31.875 -21.25 31.875 -19 33 C-16.89044938 33.19738723 -16.89044938 33.19738723 -14.5625 33.1875 C-13.78003906 33.20167969 -12.99757813 33.21585938 -12.19140625 33.23046875 C-9.70794013 33.14086064 -9.70794013 33.14086064 -7 31 C-6.42251197 29.03638136 -6.42251197 29.03638136 -6.3125 26.875 C-6.209375 25.59625 -6.10625 24.3175 -6 23 C-6.92619141 23.05220703 -6.92619141 23.05220703 -7.87109375 23.10546875 C-15.60187163 23.35257124 -21.69083222 22.36369127 -28.0625 17.8125 C-30.12726945 14.81525402 -30.79654689 12.72435443 -30.546875 9.0625 C-29.49877781 5.10967633 -27.14592107 2.51813194 -24 0 C-16.37310754 -3.3734332 -7.71662598 -2.79112003 0 0 Z " fill="#2F4A77" transform="translate(326,57)"/>
<path d="M0 0 C0.33 1.98 0.66 3.96 1 6 C-0.8871875 5.7525 -0.8871875 5.7525 -2.8125 5.5 C-6.47993548 5.10540251 -10.12477437 4.84913241 -13.8125 4.75 C-14.70582031 4.72421875 -15.59914063 4.6984375 -16.51953125 4.671875 C-19.50539817 5.06685582 -20.85001984 5.9192146 -23 8 C-23.50014953 10.54258463 -23.50014953 10.54258463 -23 13 C-19.66424111 16.33575889 -15.1221744 15.4087368 -10.578125 15.55859375 C-6.73028557 16.03327263 -4.2848894 16.96855524 -1 19 C1.96484609 23.44726914 1.88488606 27.78985189 1 33 C-1.3812447 36.4868226 -5.18510543 38.36095524 -9 40 C-16.09070285 40.85947913 -23.082641 39.47289773 -30 38 C-30 36.02 -30 34.04 -30 32 C-24.25 31.875 -24.25 31.875 -22 33 C-20.19156337 33.14716542 -18.37668434 33.2210887 -16.5625 33.25 C-15.59441406 33.27578125 -14.62632812 33.3015625 -13.62890625 33.328125 C-10.98474528 33.21154645 -10.98474528 33.21154645 -9.16796875 31.6796875 C-7.40431203 29.14332499 -7.73923711 26.99877324 -8 24 C-10.21597353 21.78402647 -15.7840061 22.26481426 -18.921875 22.01367188 C-23.73039427 21.51425765 -26.46147874 20.54527417 -30 17 C-31.53597454 13.92805092 -31.2265038 11.39755707 -31 8 C-29.67311912 4.36853654 -28.6724436 2.50002216 -25.5625 0.1875 C-17.23468338 -3.67173209 -8.63734564 -2.01958813 0 0 Z " fill="#294574" transform="translate(398,57)"/>
<path d="M0 0 C9.57 0 19.14 0 29 0 C29 1.65 29 3.3 29 5 C21.74 5 14.48 5 7 5 C7 8.96 7 12.92 7 17 C13.6 17 20.2 17 27 17 C27.33 18.32 27.66 19.64 28 21 C27 22 27 22 25.05053711 22.11352539 C24.2178833 22.10828857 23.38522949 22.10305176 22.52734375 22.09765625 C21.62822266 22.09443359 20.72910156 22.09121094 19.80273438 22.08789062 C18.85720703 22.07951172 17.91167969 22.07113281 16.9375 22.0625 C15.98810547 22.05798828 15.03871094 22.05347656 14.06054688 22.04882812 C11.70700469 22.03700128 9.35349468 22.01906521 7 22 C7 26.29 7 30.58 7 35 C14.26 35 21.52 35 29 35 C28.67 36.65 28.34 38.3 28 40 C18.76 40 9.52 40 0 40 C0 26.8 0 13.6 0 0 Z " fill="#0C2B61" transform="translate(436,56)"/>
<path d="M0 0 C0.33 0 0.66 0 1 0 C1.00808685 0.8703035 1.01617371 1.74060699 1.02450562 2.63728333 C1.10240024 10.83336951 1.18967531 19.02929028 1.28752708 27.22516346 C1.33750348 31.43889375 1.38383331 35.6525988 1.421875 39.86645508 C1.45871097 43.93197602 1.50506614 47.99728652 1.55806351 52.06262779 C1.57661648 53.61474611 1.59172111 55.16690955 1.60334396 56.71909523 C1.62019123 58.89083089 1.64922166 61.06208367 1.68115234 63.23364258 C1.69447601 64.47052322 1.70779968 65.70740387 1.7215271 66.98176575 C1.77498799 70.17805223 1.77498799 70.17805223 4 73 C7.28424391 73.44236189 7.28424391 73.44236189 11 73.3125 C12.258125 73.30863281 13.51625 73.30476563 14.8125 73.30078125 C18.09200044 73.33303294 18.09200044 73.33303294 20 71 C20.30518439 68.64103042 20.30518439 68.64103042 20.2734375 65.9140625 C20.2940625 64.90085937 20.3146875 63.88765625 20.3359375 62.84375 C20.36188339 60.70580889 20.38016988 58.56776048 20.390625 56.4296875 C20.41382813 55.41390625 20.43703125 54.398125 20.4609375 53.3515625 C20.47326416 51.95671631 20.47326416 51.95671631 20.48583984 50.53369141 C21.16126004 47.20533871 22.30636082 46.02423474 25 44 C27.24243164 43.49829102 27.24243164 43.49829102 29.66015625 43.50390625 C30.9740332 43.50293945 30.9740332 43.50293945 32.31445312 43.50195312 C33.22130859 43.52193359 34.12816406 43.54191406 35.0625 43.5625 C35.97322266 43.55541016 36.88394531 43.54832031 37.82226562 43.54101562 C44.49766043 43.60496561 44.49766043 43.60496561 46.78295898 45.40209961 C48 47 48 47 48 49 C46.79601562 49.04898438 45.59203125 49.09796875 44.3515625 49.1484375 C42.77601802 49.22346343 41.20049834 49.29901133 39.625 49.375 C38.8309375 49.4059375 38.036875 49.436875 37.21875 49.46875 C32.63332625 49.51816421 32.63332625 49.51816421 29 52 C28.69511974 54.24463077 28.69511974 54.24463077 28.7265625 56.83203125 C28.7059375 57.79560547 28.6853125 58.75917969 28.6640625 59.75195312 C28.63817147 61.78051564 28.61985247 63.80918995 28.609375 65.83789062 C28.43094902 73.27726257 28.43094902 73.27726257 26.125 77.14453125 C22.73310516 80.10620413 19.88408715 80.07936093 15.49609375 79.89453125 C8.53641975 79.35761317 8.53641975 79.35761317 5 77 C5 76.34 5 75.68 5 75 C4.360625 74.71125 3.72125 74.4225 3.0625 74.125 C1 73 1 73 0 71 C-0.09202122 68.75335569 -0.11749805 66.50389567 -0.11352539 64.25537109 C-0.11367142 63.56257553 -0.11381744 62.86977997 -0.1139679 62.1559906 C-0.11327018 59.86177459 -0.10548442 57.56763936 -0.09765625 55.2734375 C-0.09579157 53.68445887 -0.0943679 52.09547966 -0.09336853 50.50650024 C-0.08954731 46.32090675 -0.07972039 42.13534787 -0.06866455 37.94976807 C-0.05844194 33.68005847 -0.05386909 29.4103433 -0.04882812 25.140625 C-0.03809778 16.76040077 -0.02102608 8.38020469 0 0 Z " fill="#9EABBF" transform="translate(119,17)"/>
<path d="M0 0 C2.05078125 0.03255208 4.1015625 0.06510417 6.15234375 0.09765625 C7.49073108 2.553358 8.82320607 5.01195541 10.15234375 7.47265625 C10.53390625 8.17132813 10.91546875 8.87 11.30859375 9.58984375 C14.15234375 14.87109375 14.15234375 14.87109375 14.15234375 17.09765625 C15.14234375 17.09765625 16.13234375 17.09765625 17.15234375 17.09765625 C17.41789062 16.40285156 17.6834375 15.70804688 17.95703125 14.9921875 C19.25837451 11.84089549 20.73937758 8.82765454 22.27734375 5.78515625 C22.81617188 4.71652344 23.355 3.64789063 23.91015625 2.546875 C24.32007813 1.73863281 24.73 0.93039063 25.15234375 0.09765625 C28.12234375 0.09765625 31.09234375 0.09765625 34.15234375 0.09765625 C31.68267635 6.7467608 27.65700647 12.53905211 23.9375 18.54492188 C20.84740962 23.55040535 19.91815635 26.88837983 19.58984375 32.72265625 C19.54666016 33.4290625 19.50347656 34.13546875 19.45898438 34.86328125 C19.35289624 36.60784162 19.25211486 38.35272322 19.15234375 40.09765625 C16.84234375 40.09765625 14.53234375 40.09765625 12.15234375 40.09765625 C12.17296875 39.34484375 12.19359375 38.59203125 12.21484375 37.81640625 C11.99863096 26.68144767 7.50875091 18.50520765 1.99853516 9.13574219 C-0.84765625 4.28128615 -0.84765625 4.28128615 -0.84765625 2.09765625 C-1.50765625 1.76765625 -2.16765625 1.43765625 -2.84765625 1.09765625 C-1.84765625 0.09765625 -1.84765625 0.09765625 0 0 Z " fill="#39537E" transform="translate(331.84765625,55.90234375)"/>
<path d="M0 0 C0.33 0 0.66 0 1 0 C1.00808685 0.89758026 1.01617371 1.79516052 1.02450562 2.71994019 C1.10235018 11.16650945 1.18960979 19.61291711 1.28752708 28.05927849 C1.33753668 32.40195376 1.38386609 36.74460414 1.421875 41.08740234 C1.45866919 45.276109 1.5050127 49.4646098 1.55806351 53.65314102 C1.57663878 55.2535352 1.59173509 56.85397357 1.60334396 58.45443344 C1.62015324 60.69102954 1.64917413 62.92715091 1.68115234 65.16357422 C1.69447601 66.43820526 1.70779968 67.7128363 1.7215271 69.02609253 C1.69193792 72.11733979 1.69193792 72.11733979 4 74 C7.02304308 74.35870143 7.02304308 74.35870143 10.4375 74.3125 C11.59121094 74.32925781 12.74492187 74.34601563 13.93359375 74.36328125 C16.9238256 74.26139053 16.9238256 74.26139053 18.66760254 72.79295349 C20.44143743 70.40597547 20.37804788 68.90884413 20.38476562 65.94946289 C20.39487671 64.92152115 20.40498779 63.89357941 20.41540527 62.83448792 C20.41238403 61.72508347 20.40936279 60.61567902 20.40625 59.47265625 C20.41708618 58.33219345 20.42792236 57.19173065 20.43908691 56.01670837 C20.4734276 52.36524798 20.48895855 48.71410087 20.5 45.0625 C20.5145382 40.26141584 20.54817237 35.46103483 20.59375 30.66015625 C20.59072876 29.55277603 20.58770752 28.44539581 20.58459473 27.30445862 C20.59470581 26.27336472 20.60481689 25.24227081 20.61523438 24.17993164 C20.61728882 23.27408829 20.61934326 22.36824493 20.62145996 21.43495178 C21.08096814 18.47917393 21.88233697 17.09961691 24 15 C27.6875 14.75 27.6875 14.75 31 15 C31.66 16.32 32.32 17.64 33 19 C30.03 19.495 30.03 19.495 27 20 C26.00032309 22.99903074 25.86427649 25.02377351 25.84228516 28.15820312 C25.82689194 29.7349884 25.82689194 29.7349884 25.81118774 31.34362793 C25.80388641 32.47804321 25.79658508 33.6124585 25.7890625 34.78125 C25.76100456 37.17318405 25.73234018 39.56511105 25.703125 41.95703125 C25.66177458 45.73616417 25.62489463 49.51516391 25.59863281 53.29443359 C25.57111952 56.93614997 25.52525877 60.5772637 25.4765625 64.21875 C25.47330963 65.35316528 25.47005676 66.48758057 25.46670532 67.65637207 C25.45013885 68.70756226 25.43357239 69.75875244 25.41650391 70.84179688 C25.40841705 71.76762573 25.4003302 72.69345459 25.39199829 73.64733887 C24.92490338 76.45070833 24.28047584 77.34504162 22 79 C18.92578125 79.50390625 18.92578125 79.50390625 15.3125 79.5625 C13.54326172 79.62630859 13.54326172 79.62630859 11.73828125 79.69140625 C6.58114805 78.73757911 3.19666937 77.2789631 0 73 C-1.21379146 67.67096876 -1.09694023 62.38432238 -1.03515625 56.953125 C-1.04522224 55.37462951 -1.05865516 53.79615221 -1.07530212 52.2177124 C-1.10933229 48.07520807 -1.09494185 43.9342066 -1.07116699 39.79168701 C-1.05961044 36.40260478 -1.08159837 33.01413227 -1.10547733 29.62514114 C-1.15453479 22.63337088 -1.18187059 15.64130607 -1.14868164 8.64941406 C-1.14246544 6.79126068 -1.14246544 6.79126068 -1.13612366 4.89556885 C-1 2 -1 2 0 0 Z " fill="#95A3B9" transform="translate(17,16)"/>
<path d="M0 0 C10.89 0 21.78 0 33 0 C33 1.65 33 3.3 33 5 C28.71 5 24.42 5 20 5 C20 16.55 20 28.1 20 40 C17.69 40 15.38 40 13 40 C13 28.45 13 16.9 13 5 C9.04 5 5.08 5 1 5 C0.67 3.35 0.34 1.7 0 0 Z " fill="#123165" transform="translate(400,56)"/>
<path d="M0 0 C6.79504192 -0.1275133 13.58977163 -0.21464857 20.38574219 -0.2746582 C22.69412771 -0.29969317 25.00243483 -0.33373154 27.31054688 -0.37719727 C30.64212465 -0.43833373 33.97264813 -0.46632107 37.3046875 -0.48828125 C38.834991 -0.52699089 38.834991 -0.52699089 40.39620972 -0.56648254 C48.49405496 -0.56960232 55.05863576 1.43000651 61.14718628 6.94487 C67.68495197 13.76497489 70.03131543 21.63668782 70 31 C69.15535845 34.63845591 68.62526301 36.37473699 66 39 C64.845 39.2475 63.69 39.495 62.5 39.75 C61.345 40.1625 60.19 40.575 59 41 C57.46853622 44.00594421 57.46853622 44.00594421 57 47 C54.625 46.6875 54.625 46.6875 52 46 C49.83448884 42.75173326 49.44843047 41.76905843 50 38 C52.93448452 33.89172167 56.26840642 33.24985491 61 32 C62.51617889 28.96764223 62.21034412 26.12074987 62.25 22.75 C62.28867188 20.79320312 62.28867188 20.79320312 62.328125 18.796875 C61.98113373 14.78169033 60.98221811 12.46387608 59 9 C58.505 7.515 58.505 7.515 58 6 C55.70465742 4.86454438 55.70465742 4.86454438 53 4 C52.22086746 3.6572403 51.44173492 3.31448059 50.63899231 2.96133423 C47.92047622 1.97103101 45.90487069 1.72672618 43.02612305 1.68115234 C41.58519539 1.65134781 41.58519539 1.65134781 40.11515808 1.62094116 C39.0910231 1.60938995 38.06688812 1.59783875 37.01171875 1.5859375 C35.95338333 1.56657135 34.89504791 1.5472052 33.80464172 1.5272522 C30.43234252 1.46758752 27.06000894 1.42112307 23.6875 1.375 C21.39777177 1.33680819 19.10805772 1.29775576 16.81835938 1.2578125 C11.21236569 1.16189674 5.60628624 1.07681089 0 1 C0 0.67 0 0.34 0 0 Z " fill="#95A3B9" transform="translate(126,12)"/>
<path d="M0 0 C5.99509773 1.01930073 10.45299557 5.8341938 13.875 10.625 C17.83978258 18.99509657 18.58247248 27.46856402 15.5 36.375 C12.75230033 42.37887045 8.21306046 46.23281675 2.5 49.375 C-5.29109254 51.32277313 -13.05588904 51.06274777 -21.01757812 50.87304688 C-22.30245117 50.85661133 -22.30245117 50.85661133 -23.61328125 50.83984375 C-24.38454346 50.82300537 -25.15580566 50.80616699 -25.95043945 50.78881836 C-28.31203277 50.87110663 -28.31203277 50.87110663 -31 53 C-31.45889158 55.1395534 -31.45889158 55.1395534 -31.40625 57.61328125 C-31.42816406 58.53173828 -31.45007813 59.45019531 -31.47265625 60.39648438 C-31.48167969 61.35876953 -31.49070313 62.32105469 -31.5 63.3125 C-31.61088867 74.99541326 -31.61088867 74.99541326 -35 79 C-38.73730065 81.49153377 -41.67654816 81.41025455 -46 81 C-48.4120667 80.47406064 -50.65207188 79.78264271 -53 79 C-49.38323726 77.19161863 -45.03841752 78.10692045 -41.06640625 78.2578125 C-38.07720237 78.2691839 -38.07720237 78.2691839 -36.33154297 76.81005859 C-34.54163129 74.37690766 -34.6312505 72.7839749 -34.62890625 69.78125 C-34.61150391 68.76675781 -34.59410156 67.75226563 -34.57617188 66.70703125 C-34.56705735 64.5690235 -34.56184896 62.43099553 -34.56054688 60.29296875 C-34.54185547 59.27847656 -34.52316406 58.26398438 -34.50390625 57.21875 C-34.50205322 56.28998047 -34.5002002 55.36121094 -34.49829102 54.40429688 C-34 52 -34 52 -32.33081055 50.19921875 C-29.4513871 48.71773473 -27.43625834 48.61628055 -24.203125 48.59375 C-23.0790625 48.57183594 -21.955 48.54992187 -20.796875 48.52734375 C-19.62640625 48.51832031 -18.4559375 48.50929687 -17.25 48.5 C-8.16703462 48.42903933 -1.15132591 48.1610409 6.75 43.3125 C12.21816473 37.69244181 13.41203838 32.6667352 13.5 25 C13.37553838 17.22292684 12.3453993 12.26478727 6.73046875 6.78515625 C5.12486762 5.34643649 3.49178075 3.93758059 1.828125 2.56640625 C1.22484375 2.04949219 0.6215625 1.53257813 0 1 C0 0.67 0 0.34 0 0 Z " fill="#F6F7F7" transform="translate(262,16)"/>
<path d="M0 0 C3.66254958 1.22084986 5.76006173 3.60437823 7.9284668 6.72875977 C10.08914837 11.30857764 9.67339009 16.22142238 9.5625 21.1875 C9.57345703 22.26708984 9.58441406 23.34667969 9.59570312 24.45898438 C9.52235273 32.33681653 9.52235273 32.33681653 7.18530273 35.30395508 C3.9934306 37.78121301 1.48624096 37.53138772 -2.5 37.5 C-3.8096875 37.5103125 -5.119375 37.520625 -6.46875 37.53125 C-10.42290608 36.93637696 -11.62910761 36.14506134 -14 33 C-14 32.67 -14 32.34 -14 32 C-12.64455078 31.92652344 -12.64455078 31.92652344 -11.26171875 31.8515625 C-10.08222656 31.77679688 -8.90273437 31.70203125 -7.6875 31.625 C-5.92986328 31.52058594 -5.92986328 31.52058594 -4.13671875 31.4140625 C-0.84300113 31.21386253 -0.84300113 31.21386253 2 29 C2.45037553 26.3363544 2.45037553 26.3363544 2.36328125 23.22265625 C2.36263672 22.06958984 2.36199219 20.91652344 2.36132812 19.72851562 C2.34521484 18.51873047 2.32910156 17.30894531 2.3125 16.0625 C2.31572266 14.85658203 2.31894531 13.65066406 2.32226562 12.40820312 C2.53160399 5.8307042 2.53160399 5.8307042 0 0 Z " fill="#9AA8BC" transform="translate(186,59)"/>
<path d="M0 0 C4 3 4 3 4.50120544 5.5914917 C4.50137161 6.62960999 4.50153778 7.66772827 4.50170898 8.73730469 C4.51108994 9.91572937 4.52047089 11.09415405 4.53013611 12.30828857 C4.51890213 13.58327209 4.50766815 14.85825562 4.49609375 16.171875 C4.49754898 17.48279114 4.49900421 18.79370728 4.50050354 20.14434814 C4.50188851 22.92195666 4.48932105 25.69904948 4.46655273 28.4765625 C4.4382777 32.02178576 4.44087342 35.56614507 4.45364285 39.11143112 C4.46231321 42.5066677 4.44713043 45.90165288 4.43359375 49.296875 C4.43652939 50.5637616 4.43946503 51.83064819 4.44248962 53.13592529 C4.37464273 59.50669167 4.12721047 64.38729737 1 70 C0.67 70 0.34 70 0 70 C0 46.9 0 23.8 0 0 Z " fill="#8B9AB2" transform="translate(106,17)"/>
<path d="M0 0 C0.66 0 1.32 0 2 0 C3.01025561 8.9118977 3.11035739 17.78994546 3.125 26.75 C3.12951172 27.92933105 3.13402344 29.10866211 3.13867188 30.32373047 C3.13673828 31.42861816 3.13480469 32.53350586 3.1328125 33.671875 C3.13168457 34.6731543 3.13055664 35.67443359 3.12939453 36.70605469 C3 39 3 39 2 40 C0.02 40 -1.96 40 -4 40 C-4.495 28.12 -4.495 28.12 -5 16 C-5.70125 17.7325 -6.4025 19.465 -7.125 21.25 C-9.78730079 27.65782999 -12.81954885 33.83582663 -16 40 C-17.98 40 -19.96 40 -22 40 C-23.06775224 38.03533587 -24.06553465 36.03144641 -25 34 C-24.67 33.34 -24.34 32.68 -24 32 C-23.01 33.98 -22.02 35.96 -21 38 C-20.01 38 -19.02 38 -18 38 C-13.71 28.1 -9.42 18.2 -5 8 C-4.67 8 -4.34 8 -4 8 C-3.23223525 12.0752634 -2.88097966 15.91005447 -2.90234375 20.0546875 C-2.90556641 21.16328125 -2.90878906 22.271875 -2.91210938 23.4140625 C-2.92048828 24.55617188 -2.92886719 25.69828125 -2.9375 26.875 C-2.94201172 28.0403125 -2.94652344 29.205625 -2.95117188 30.40625 C-2.96291219 33.27088645 -2.9793343 36.13541633 -3 39 C-2.01 39 -1.02 39 0 39 C0 26.13 0 13.26 0 0 Z " fill="#D3D9E1" transform="translate(510,56)"/>
<path d="M0 0 C0.66 1.32 1.32 2.64 2 4 C1.21625 4.28875 0.4325 4.5775 -0.375 4.875 C-3.09671632 5.84912254 -3.09671632 5.84912254 -5 8 C-5.24543141 10.64787789 -5.37349386 13.19903823 -5.4140625 15.8515625 C-5.43342865 16.62559418 -5.4527948 17.39962585 -5.4727478 18.19711304 C-5.5325983 20.67296275 -5.57895011 23.14885883 -5.625 25.625 C-5.66317482 27.30210377 -5.70222625 28.97918784 -5.7421875 30.65625 C-5.83830409 34.77067353 -5.92231439 38.88518886 -6 43 C-6.99 43.495 -6.99 43.495 -8 44 C-8.4683265 46.58605332 -8.4683265 46.58605332 -8.625 49.5625 C-8.69976562 50.57441406 -8.77453125 51.58632812 -8.8515625 52.62890625 C-8.90054688 53.41136719 -8.94953125 54.19382813 -9 55 C-9.33 55 -9.66 55 -10 55 C-10.10136217 47.81018098 -10.1714496 40.62054598 -10.21972656 33.43017578 C-10.23985052 30.98381667 -10.2671526 28.53750571 -10.30175781 26.09130859 C-10.35023963 22.57637659 -10.37296128 19.06208016 -10.390625 15.546875 C-10.41127014 14.4519574 -10.43191528 13.35703979 -10.45318604 12.22894287 C-10.45348816 11.20818665 -10.45379028 10.18743042 -10.45410156 9.13574219 C-10.46298401 8.23861511 -10.47186646 7.34148804 -10.48101807 6.41717529 C-9.3074108 0.51965357 -5.43628927 -0.49420812 0 0 Z " fill="#8C9BB3" transform="translate(82,31)"/>
<path d="M0 0 C4.12536512 -0.19936709 8.24882865 -0.34365032 12.37792969 -0.43945312 C13.77881763 -0.47942324 15.17937735 -0.53382527 16.57910156 -0.60351562 C28.18390201 -1.16637328 28.18390201 -1.16637328 32.71875 1.74609375 C37.64003942 6.60586705 39.12068873 9.58137563 39.17700195 16.48168945 C39.18685875 17.47957489 39.18685875 17.47957489 39.19691467 18.49761963 C39.21665161 20.70284129 39.22831138 22.90799482 39.23828125 25.11328125 C39.24235678 25.86645315 39.2464323 26.61962505 39.25063133 27.39562035 C39.2714943 31.38247784 39.2857947 35.36930089 39.29516602 39.35620117 C39.30622785 43.47221781 39.34062383 47.58769343 39.38033772 51.70351887 C39.40649687 54.87000018 39.41485721 58.03635249 39.41844749 61.20293236 C39.42331575 62.71997924 39.43493667 64.23702027 39.45348549 65.75396156 C39.4778626 67.87978453 39.47691555 70.0042067 39.4699707 72.13012695 C39.47583694 73.33876907 39.48170319 74.54741119 39.48774719 75.79267883 C38.89970526 79.65951678 37.82042276 81.32308379 35 84 C32.03327323 84.37233017 29.68143759 84.4808246 26.75 84.3125 C26.00492188 84.28994141 25.25984375 84.26738281 24.4921875 84.24414062 C22.660591 84.18543561 20.83003347 84.09575757 19 84 C18.505 83.01 18.505 83.01 18 82 C19.04800781 82.03480469 20.09601563 82.06960937 21.17578125 82.10546875 C22.55467147 82.13360937 23.93357902 82.16090924 25.3125 82.1875 C26.00279297 82.21263672 26.69308594 82.23777344 27.40429688 82.26367188 C31.24516074 82.36563634 31.24516074 82.36563634 34.69416809 80.89764404 C36.63757006 78.07347875 36.41859845 75.75033581 36.4675293 72.34472656 C36.48081772 71.67278259 36.49410614 71.00083862 36.50779724 70.30853271 C36.5465051 68.0857769 36.56209075 65.86367568 36.57421875 63.640625 C36.58894135 62.09226333 36.60382093 60.54390315 36.61885071 58.99554443 C36.64585153 55.74731275 36.65939179 52.49931009 36.66577148 49.25097656 C36.6766235 45.09962608 36.73826442 40.95071705 36.8124876 36.80008316 C36.86100381 33.59999545 36.87330309 30.40048961 36.87583351 27.20006561 C36.88304229 25.67063217 36.90343325 24.14119939 36.93753624 22.61212921 C37.28013377 14.19074923 37.28013377 14.19074923 34.40188599 6.49351501 C30.36462019 2.64635233 26.73100097 1.12375463 21.09375 1.09765625 C19.2375 1.06381836 19.2375 1.06381836 17.34375 1.02929688 C16.0753125 1.04025391 14.806875 1.05121094 13.5 1.0625 C12.200625 1.04638672 10.90125 1.03027344 9.5625 1.01367188 C6.37391815 0.97850369 3.18858121 0.97483034 0 1 C0 0.67 0 0.34 0 0 Z " fill="#FBFCFB" transform="translate(74,12)"/>
<path d="M0 0 C-0.33 0.99 -0.66 1.98 -1 3 C-1 2.34 -1 1.68 -1 1 C-4.11478906 3.64767311 -4.11478906 3.64767311 -5.49206543 7.38352966 C-5.48888306 8.26557571 -5.48570068 9.14762177 -5.48242188 10.05639648 C-5.48922974 11.06101425 -5.4960376 12.06563202 -5.50305176 13.10069275 C-5.49173218 14.17992508 -5.4804126 15.25915741 -5.46875 16.37109375 C-5.47579956 17.48557388 -5.48284912 18.60005402 -5.4901123 19.74830627 C-5.51964967 24.51665038 -5.50295838 29.28458844 -5.49072266 34.05297852 C-5.48834456 37.53426643 -5.50924878 41.01488839 -5.53125 44.49609375 C-5.51993042 45.57330185 -5.50861084 46.65050995 -5.49694824 47.76036072 C-5.52744088 52.27419582 -5.55129596 55.19282717 -7.77246094 59.18847656 C-10.17927982 61.14579748 -11.06370249 61.60364763 -14.109375 61.48828125 C-15.24052734 61.46411133 -15.24052734 61.46411133 -16.39453125 61.43945312 C-17.56048828 61.37661133 -17.56048828 61.37661133 -18.75 61.3125 C-19.54277344 61.28994141 -20.33554687 61.26738281 -21.15234375 61.24414062 C-23.1023762 61.18540471 -25.05143312 61.09572654 -27 61 C-27.66 59.68 -28.32 58.36 -29 57 C-28.01 57.66 -27.02 58.32 -26 59 C-22.6366372 59.31863563 -22.6366372 59.31863563 -18.9375 59.25 C-17.68839844 59.25515625 -16.43929687 59.2603125 -15.15234375 59.265625 C-11.90308398 59.33324228 -11.90308398 59.33324228 -10 57 C-9.69648184 54.68339706 -9.69648184 54.68339706 -9.74462891 51.97119141 C-9.73419052 50.39913437 -9.73419052 50.39913437 -9.72354126 48.7953186 C-9.72453827 47.65887909 -9.72553528 46.52243958 -9.7265625 45.3515625 C-9.70627331 42.96093282 -9.68542252 40.57030785 -9.6640625 38.1796875 C-9.6414436 34.39839715 -9.62498808 30.61729243 -9.61914062 26.8359375 C-9.60963914 23.19496823 -9.57588571 19.55484343 -9.5390625 15.9140625 C-9.54410797 14.78167145 -9.54915344 13.6492804 -9.55435181 12.48257446 C-9.54108856 11.42823212 -9.52782532 10.37388977 -9.51416016 9.28759766 C-9.51131012 8.36097321 -9.50846008 7.43434875 -9.50552368 6.47964478 C-8.42408969 1.17510169 -5.12288683 -0.56920965 0 0 Z " fill="#F0F2F4" transform="translate(51,35)"/>
<path d="M0 0 C1.3602832 -0.04930664 1.3602832 -0.04930664 2.74804688 -0.09960938 C9.37996688 -0.15328938 9.37996688 -0.15328938 12.70703125 2.7265625 C14.50675005 6.3260001 13.96736022 8.59184406 13.0625 12.4375 C12.4025 12.1075 11.7425 11.7775 11.0625 11.4375 C11.3925 9.7875 11.7225 8.1375 12.0625 6.4375 C9.45722895 6.32957163 6.85641689 6.25025122 4.25 6.1875 C3.14301758 6.13722656 3.14301758 6.13722656 2.01367188 6.0859375 C-2.37773175 5.97128827 -2.37773175 5.97128827 -5.94921875 8.265625 C-7.14458646 10.49490643 -7.14458646 10.49490643 -6.9375 13.4375 C-9.18202405 13.0505131 -10.80804181 12.51785336 -12.75 11.3125 C-13.9375 9.4375 -13.9375 9.4375 -13.8125 5.875 C-12.00878069 -1.21104016 -6.08562216 0.03876192 0 0 Z " fill="#93A2B8" transform="translate(236.9375,30.5625)"/>
<path d="M0 0 C1.3602832 -0.0299707 1.3602832 -0.0299707 2.74804688 -0.06054688 C9.42303954 -0.05563518 9.42303954 -0.05563518 12.69140625 2.46484375 C13.37009766 3.44130859 13.37009766 3.44130859 14.0625 4.4375 C13.7325 5.0975 13.4025 5.7575 13.0625 6.4375 C11.25652344 6.40269531 11.25652344 6.40269531 9.4140625 6.3671875 C7.83854785 6.34843137 6.26302652 6.33023101 4.6875 6.3125 C3.8934375 6.29574219 3.099375 6.27898438 2.28125 6.26171875 C0.20757985 6.24414527 -1.86633241 6.33414832 -3.9375 6.4375 C-6.29703094 8.79703094 -6.42891413 10.21645617 -6.9375 13.4375 C-11.8125 11.5625 -11.8125 11.5625 -12.9375 10.4375 C-13.40797156 4.0861339 -13.40797156 4.0861339 -11.70483398 1.73803711 C-8.30558649 -0.76338455 -4.06828395 -0.031671 0 0 Z " fill="#9AA8BC" transform="translate(153.9375,30.5625)"/>
<path d="M0 0 C1.98 0 3.96 0 6 0 C6 12.87 6 25.74 6 39 C5.01 39 4.02 39 3 39 C2.97494385 38.26362305 2.9498877 37.52724609 2.92407227 36.76855469 C2.80795727 33.42886622 2.68530082 30.08944903 2.5625 26.75 C2.52318359 25.59113281 2.48386719 24.43226562 2.44335938 23.23828125 C2.38051758 21.56572266 2.38051758 21.56572266 2.31640625 19.859375 C2.27974854 18.83295898 2.24309082 17.80654297 2.20532227 16.74902344 C2.02717872 14.36389113 1.67222637 12.28700501 1 10 C0.34 10.66 -0.32 11.32 -1 12 C-2 11 -2 11 -2.1875 8.25 C-2.00187851 5.03256076 -1.36114502 2.89243317 0 0 Z " fill="#0E2D62" transform="translate(504,56)"/>
<path d="M0 0 C-0.639375 0.391875 -1.27875 0.78375 -1.9375 1.1875 C-4.53806335 3.47284355 -4.54343401 4.61241149 -5 8 C-5.06273353 10.07072345 -5.07338335 12.14333984 -5.046875 14.21484375 C-5.03849609 15.44960449 -5.03011719 16.68436523 -5.02148438 17.95654297 C-5.01459595 18.94179962 -5.01459595 18.94179962 -5.00756836 19.94696045 C-4.98623164 25.73489103 -5.08492832 31.52142966 -5.20751953 37.30786133 C-5.23614114 38.82694478 -5.25714483 40.34618859 -5.27099609 41.86547852 C-5.29240972 44.0998711 -5.33891654 46.33253455 -5.390625 48.56640625 C-5.4220459 50.53009155 -5.4220459 50.53009155 -5.45410156 52.53344727 C-6.08474094 56.53812016 -7.0580158 58.24368132 -10 61 C-12.96672677 61.37233017 -15.31856241 61.4808246 -18.25 61.3125 C-18.99507813 61.28994141 -19.74015625 61.26738281 -20.5078125 61.24414062 C-22.339409 61.18543561 -24.16996653 61.09575757 -26 61 C-26 60.67 -26 60.34 -26 60 C-25.02417969 59.97421875 -24.04835937 59.9484375 -23.04296875 59.921875 C-21.77066406 59.86515625 -20.49835938 59.8084375 -19.1875 59.75 C-17.29064453 59.68039063 -17.29064453 59.68039063 -15.35546875 59.609375 C-12.00425021 59.33368853 -12.00425021 59.33368853 -10.31433105 57.28565979 C-8.75363243 54.57155966 -8.62230342 52.93694375 -8.61523438 49.82006836 C-8.60512329 48.78897446 -8.59501221 47.75788055 -8.58459473 46.69554138 C-8.58761597 45.58816116 -8.59063721 44.48078094 -8.59375 43.33984375 C-8.58291382 42.19842422 -8.57207764 41.0570047 -8.56091309 39.8809967 C-8.51497658 34.99516944 -8.50354349 30.1093934 -8.48876953 25.22338867 C-8.47311766 21.65784556 -8.44012696 18.09275259 -8.40625 14.52734375 C-8.40927124 13.4179393 -8.41229248 12.30853485 -8.41540527 11.16551208 C-8.40529419 10.13757034 -8.39518311 9.1096286 -8.38476562 8.05053711 C-8.38271118 7.14548935 -8.38065674 6.24044159 -8.37854004 5.30796814 C-7.5523598 0.27072642 -4.65422754 -0.3773698 0 0 Z " fill="#FBFBFB" transform="translate(85,35)"/>
<path d="M0 0 C0.99 0 1.98 0 3 0 C3 1.65 3 3.3 3 5 C-1.29 5 -5.58 5 -10 5 C-10 16.55 -10 28.1 -10 40 C-12.31 40 -14.62 40 -17 40 C-17 28.45 -17 16.9 -17 5 C-16.67 5 -16.34 5 -16 5 C-16 16.22 -16 27.44 -16 39 C-14.68 39 -13.36 39 -12 39 C-12 27.45 -12 15.9 -12 4 C-8.04 4 -4.08 4 0 4 C0 2.68 0 1.36 0 0 Z " fill="#DADFE5" transform="translate(430,56)"/>
<path d="M0 0 C0.99 0 1.98 0 3 0 C0.5303326 6.64910455 -3.49533728 12.44139586 -7.21484375 18.44726562 C-10.30493413 23.4527491 -11.2341874 26.79072358 -11.5625 32.625 C-11.60568359 33.33140625 -11.64886719 34.0378125 -11.69335938 34.765625 C-11.79944751 36.51018537 -11.90022889 38.25506697 -12 40 C-14.31 40 -16.62 40 -19 40 C-19.06058594 39.11957031 -19.12117188 38.23914063 -19.18359375 37.33203125 C-19.26738281 36.17058594 -19.35117187 35.00914063 -19.4375 33.8125 C-19.51871094 32.66394531 -19.59992188 31.51539062 -19.68359375 30.33203125 C-19.95403812 27.48401829 -20.37521747 24.78789518 -21 22 C-20.34 22.33 -19.68 22.66 -19 23 C-17.85922343 26.42232972 -17.90184883 29.08673217 -17.9375 32.6875 C-17.94652344 33.86699219 -17.95554687 35.04648438 -17.96484375 36.26171875 C-17.97644531 37.16535156 -17.98804688 38.06898437 -18 39 C-16.68 39 -15.36 39 -14 39 C-14.16242188 38.195625 -14.32484375 37.39125 -14.4921875 36.5625 C-15.58670071 26.37682603 -12.361744 19.80835752 -7.1875 11.0625 C-6.54603027 9.97775391 -5.90456055 8.89300781 -5.24365234 7.77539062 C-1.72130503 2.08061033 -1.72130503 2.08061033 0 0 Z " fill="#D0D7DF" transform="translate(363,56)"/>
<path d="M0 0 C1.19882813 0.01450195 1.19882813 0.01450195 2.421875 0.02929688 C3.659375 0.06700195 3.659375 0.06700195 4.921875 0.10546875 C6.18257812 0.12577148 6.18257812 0.12577148 7.46875 0.14648438 C9.53673438 0.18173411 11.60438771 0.23553855 13.671875 0.29296875 C13.671875 0.62296875 13.671875 0.95296875 13.671875 1.29296875 C11.86589844 1.36644531 11.86589844 1.36644531 10.0234375 1.44140625 C8.44789302 1.51643218 6.87237334 1.59198008 5.296875 1.66796875 C4.5028125 1.69890625 3.70875 1.72984375 2.890625 1.76171875 C-1.69479875 1.81113296 -1.69479875 1.81113296 -5.328125 4.29296875 C-5.63300526 6.53759952 -5.63300526 6.53759952 -5.6015625 9.125 C-5.6221875 10.08857422 -5.6428125 11.05214844 -5.6640625 12.04492188 C-5.68995353 14.07348439 -5.70827253 16.1021587 -5.71875 18.13085938 C-5.89717598 25.57023132 -5.89717598 25.57023132 -8.203125 29.4375 C-11.61544445 32.41700687 -14.49130361 32.36822547 -18.90234375 32.1875 C-23.96517905 31.80471787 -23.96517905 31.80471787 -26.328125 31.29296875 C-26.658125 30.63296875 -26.988125 29.97296875 -27.328125 29.29296875 C-26.28011719 29.32777344 -25.23210937 29.36257812 -24.15234375 29.3984375 C-22.77345353 29.42657812 -21.39454598 29.45387799 -20.015625 29.48046875 C-19.32533203 29.50560547 -18.63503906 29.53074219 -17.92382812 29.55664062 C-14.05114134 29.67151668 -14.05114134 29.67151668 -10.62792969 28.10083008 C-8.87864974 25.6678064 -8.95935793 24.05444124 -8.95703125 21.07421875 C-8.93962891 20.05972656 -8.92222656 19.04523438 -8.90429688 18 C-8.89518235 15.86199225 -8.88997396 13.72396428 -8.88867188 11.5859375 C-8.86998047 10.57144531 -8.85128906 9.55695313 -8.83203125 8.51171875 C-8.83017822 7.58294922 -8.8283252 6.65417969 -8.82641602 5.69726562 C-8.328125 3.29296875 -8.328125 3.29296875 -6.56713867 1.48510742 C-4.11579107 0.17991384 -2.75218249 -0.05897534 0 0 Z " fill="#F8F9F9" transform="translate(153.328125,64.70703125)"/>
<path d="M0 0 C3.875 1.75 3.875 1.75 5 4 C5.59899514 9.31394261 5.98957942 13.57384143 2.875 18.0625 C-2.07725962 21.39989235 -6.58137671 22.27818392 -12.5 22.25 C-14.12421875 22.25773437 -14.12421875 22.25773437 -15.78125 22.265625 C-19.13574256 21.98879794 -21.86306413 21.19052385 -25 20 C-25 18.02 -25 16.04 -25 14 C-21.625 13.875 -21.625 13.875 -18 14 C-17.34 14.66 -16.68 15.32 -16 16 C-18.64 15.67 -21.28 15.34 -24 15 C-24 16.32 -24 17.64 -24 19 C-20.95778935 19.08132642 -17.9177762 19.14065374 -14.875 19.1875 C-13.59109375 19.22520508 -13.59109375 19.22520508 -12.28125 19.26367188 C-7.09127372 19.32355622 -3.47453877 18.95205194 1 16 C2.29376578 13.41246844 2.16832397 11.45041015 2.1875 8.5625 C2.20876953 7.11037109 2.20876953 7.11037109 2.23046875 5.62890625 C2.19149451 2.76733273 2.19149451 2.76733273 0 0 Z " fill="#E2E6EB" transform="translate(323,75)"/>
<path d="M0 0 C1.875 0.3125 1.875 0.3125 4 1 C6.96484609 5.44726914 6.88488606 9.78985189 6 15 C3.6187553 18.4868226 -0.18510543 20.36095524 -4 22 C-11.09070285 22.85947913 -18.082641 21.47289773 -25 20 C-25 18.02 -25 16.04 -25 14 C-22.125 13.875 -22.125 13.875 -19 14 C-18.34 14.66 -17.68 15.32 -17 16 C-19.31 15.67 -21.62 15.34 -24 15 C-24 16.32 -24 17.64 -24 19 C-20.95778935 19.08132642 -17.9177762 19.14065374 -14.875 19.1875 C-13.59109375 19.22520508 -13.59109375 19.22520508 -12.28125 19.26367188 C-7.07466703 19.32374783 -3.50797573 18.91734505 1 16 C3.63112918 12.65129014 3.36141398 9.12011936 3 5 C1.63002843 2.12853006 1.63002843 2.12853006 0 0 Z " fill="#E9ECEF" transform="translate(393,75)"/>
<path d="M0 0 C2.28822939 3.05097252 4.03157205 5.71156549 5.75 9.0625 C6.19859375 9.91972656 6.6471875 10.77695313 7.109375 11.66015625 C8 14 8 14 7 17 C6.01 15.02 5.02 13.04 4 11 C3.67 11 3.34 11 3 11 C2.67 17.93 2.34 24.86 2 32 C-0.31 32 -2.62 32 -5 32 C-4.67 30.68 -4.34 29.36 -4 28 C-4 28.99 -4 29.98 -4 31 C-2.68 31 -1.36 31 0 31 C0 20.77 0 10.54 0 0 Z " fill="#ECEFF1" transform="translate(474,64)"/>
<path d="M0 0 C6.79504192 -0.1275133 13.58977163 -0.21464857 20.38574219 -0.2746582 C22.69412771 -0.29969317 25.00243483 -0.33373154 27.31054688 -0.37719727 C30.64212465 -0.43833373 33.97264813 -0.46632107 37.3046875 -0.48828125 C38.834991 -0.52699089 38.834991 -0.52699089 40.39620972 -0.56648254 C48.69450971 -0.56967954 55.03277913 1.74725493 61.47265625 7.02734375 C64.7186344 10.92730276 66.86747301 13.69892047 67 19 C65.515 19.495 65.515 19.495 64 20 C64.185625 18.700625 64.185625 18.700625 64.375 17.375 C63.90215156 13.11936403 62.4484422 11.99726967 59.3125 9.296875 C58.879375 8.86890625 58.44625 8.4409375 58 8 C58 7.34 58 6.68 58 6 C57.278125 5.71125 56.55625 5.4225 55.8125 5.125 C54.07443415 4.42977366 52.34588419 3.70947225 50.63508606 2.94961548 C47.92170723 1.97178535 45.8964282 1.72659253 43.02612305 1.68115234 C41.58519539 1.65134781 41.58519539 1.65134781 40.11515808 1.62094116 C39.0910231 1.60938995 38.06688812 1.59783875 37.01171875 1.5859375 C35.95338333 1.56657135 34.89504791 1.5472052 33.80464172 1.5272522 C30.43234252 1.46758752 27.06000894 1.42112307 23.6875 1.375 C21.39777177 1.33680819 19.10805772 1.29775576 16.81835938 1.2578125 C11.21236569 1.16189674 5.60628624 1.07681089 0 1 C0 0.67 0 0.34 0 0 Z " fill="#FBFBFB" transform="translate(126,12)"/>
<path d="M0 0 C4.18084291 -0.09922585 8.36105371 -0.17163374 12.54272461 -0.21972656 C13.96374457 -0.23978421 15.38468259 -0.26703778 16.80541992 -0.30175781 C18.85355895 -0.35054011 20.90060275 -0.37302539 22.94921875 -0.390625 C24.17987061 -0.41157227 25.41052246 -0.43251953 26.6784668 -0.45410156 C30.61543535 0.0841389 32.15311933 1.30166046 35 4 C35.763125 4.598125 36.52625 5.19625 37.3125 5.8125 C39.67893827 8.88010516 39.28955036 11.23584535 39 15 C37.125 14.6875 37.125 14.6875 35 14 C33 11 33 11 32.5625 7.4375 C32.376875 6.303125 32.19125 5.16875 32 4 C28.41577704 1.61051803 26.62767404 1.69766832 22.36328125 1.5859375 C21.06455078 1.54726562 19.76582031 1.50859375 18.42773438 1.46875 C17.05599427 1.43729483 15.68424939 1.40604749 14.3125 1.375 C12.92901215 1.33680803 11.54554777 1.29775558 10.16210938 1.2578125 C6.7748755 1.16339483 3.38764931 1.07781882 0 1 C0 0.67 0 0.34 0 0 Z " fill="#CFD6DF" transform="translate(22,12)"/>
<path d="M0 0 C0.66 0.33 1.32 0.66 2 1 C1.02688873 1.77715363 1.02688873 1.77715363 0.03411865 2.57000732 C-2.66768254 5.7976249 -2.5158465 7.70266296 -2.54589844 11.87988281 C-2.55623611 12.56321686 -2.56657379 13.2465509 -2.57722473 13.95059204 C-2.60664356 16.20167715 -2.6081516 18.4518628 -2.609375 20.703125 C-2.62435741 22.26684279 -2.64108469 23.83054476 -2.65948486 25.39422607 C-2.70316443 29.5041578 -2.72315861 33.61387607 -2.73822021 37.72399902 C-2.75778927 41.92029445 -2.79975945 46.11635927 -2.83984375 50.3125 C-2.91515232 58.54160634 -2.96543963 66.77062213 -3 75 C-3.33 75 -3.66 75 -4 75 C-4.09267747 65.81190061 -4.16375324 56.62396209 -4.20724869 47.43549728 C-4.22812433 43.16890708 -4.25644109 38.90263664 -4.30175781 34.63623047 C-4.3452171 30.51893216 -4.36913728 26.40194143 -4.37950897 22.28443146 C-4.38690027 20.7135153 -4.40133388 19.14261598 -4.42292023 17.57183075 C-4.45195682 15.37141031 -4.45595612 13.17226087 -4.45410156 10.97167969 C-4.46298401 9.71925476 -4.47186646 8.46682983 -4.48101807 7.17645264 C-3.91788569 3.45774962 -2.89875054 2.29985071 0 0 Z " fill="#7284A3" transform="translate(206,13)"/>
<path d="M0 0 C0.33 0 0.66 0 1 0 C1 12.87 1 25.74 1 39 C9.25 39 17.5 39 26 39 C26 37.68 26 36.36 26 35 C26.99 35 27.98 35 29 35 C28.67 36.65 28.34 38.3 28 40 C18.76 40 9.52 40 0 40 C0 26.8 0 13.6 0 0 Z " fill="#D7DCE4" transform="translate(436,56)"/>
<path d="M0 0 C3.56832347 3.56832347 2.36939302 9.04739224 2.375 13.875 C2.39949219 14.97714844 2.42398438 16.07929687 2.44921875 17.21484375 C2.45501953 18.80619141 2.45501953 18.80619141 2.4609375 20.4296875 C2.46915527 21.40147949 2.47737305 22.37327148 2.48583984 23.37451172 C1.85952783 26.75911442 0.71083034 27.93514965 -2 30 C-4.73682971 30.2911521 -7.03940039 30.38322418 -9.75 30.25 C-10.44738281 30.23195313 -11.14476562 30.21390625 -11.86328125 30.1953125 C-13.57611539 30.14838554 -15.28823824 30.07664605 -17 30 C-17 29.67 -17 29.34 -17 29 C-16.01257813 28.95101562 -15.02515625 28.90203125 -14.0078125 28.8515625 C-12.72648438 28.77679688 -11.44515625 28.70203125 -10.125 28.625 C-8.21074219 28.52058594 -8.21074219 28.52058594 -6.2578125 28.4140625 C-2.91938301 28.32758894 -2.91938301 28.32758894 -1 26 C-0.62792646 23.28384136 -0.62792646 23.28384136 -0.5859375 20.1171875 C-0.54726562 18.95058594 -0.50859375 17.78398438 -0.46875 16.58203125 C-0.4378125 15.35871094 -0.406875 14.13539062 -0.375 12.875 C-0.33632812 11.64394531 -0.29765625 10.41289063 -0.2578125 9.14453125 C-0.1633001 6.09650624 -0.07774506 3.04849138 0 0 Z " fill="#F1F3F4" transform="translate(193,66)"/>
<path d="M0 0 C0.33 0 0.66 0 1 0 C1 16.83 1 33.66 1 51 C0.67 51 0.34 51 0 51 C0 49.35 0 47.7 0 46 C-0.66 46 -1.32 46 -2 46 C-2 42.37 -2 38.74 -2 35 C-1.34 35 -0.68 35 0 35 C0 23.45 0 11.9 0 0 Z " fill="#BBC4D1" transform="translate(76,39)"/>
<path d="M0 0 C1 2 1 2 0.14453125 4.57421875 C-2.28845798 10.26070676 -4.7632556 15.72530542 -8 21 C-9.98 21 -11.96 21 -14 21 C-15.06775224 19.03533587 -16.06553465 17.03144641 -17 15 C-16.67 14.34 -16.34 13.68 -16 13 C-15.01 14.98 -14.02 16.96 -13 19 C-12.01 19 -11.02 19 -10 19 C-9.52949219 17.87980469 -9.05898438 16.75960937 -8.57421875 15.60546875 C-7.94569133 14.13265077 -7.31676412 12.66000337 -6.6875 11.1875 C-6.37876953 10.44951172 -6.07003906 9.71152344 -5.75195312 8.95117188 C-5.29272461 7.88286133 -5.29272461 7.88286133 -4.82421875 6.79296875 C-4.54666748 6.1383667 -4.26911621 5.48376465 -3.9831543 4.80932617 C-2.90690528 2.8286752 -1.65906668 1.51177593 0 0 Z " fill="#E7EAEE" transform="translate(502,75)"/>
<path d="M0 0 C0.66 0.33 1.32 0.66 2 1 C2 2.65 2 4.3 2 6 C0.700625 5.835 -0.59875 5.67 -1.9375 5.5 C-10.87823839 4.21061533 -10.87823839 4.21061533 -19 7 C-20.00932746 9.95034182 -20.24408113 11.3979332 -19.0625 14.3125 C-18.711875 14.869375 -18.36125 15.42625 -18 16 C-21.875 14.125 -21.875 14.125 -23 13 C-23.3125 9.625 -23.3125 9.625 -23 6 C-20.61826954 3.42420262 -19.20272683 3.02008143 -15.6875 2.671875 C-13.8621875 2.71054687 -13.8621875 2.71054687 -12 2.75 C-10.783125 2.76546875 -9.56625 2.7809375 -8.3125 2.796875 C-5.68590016 2.95794008 -3.49588492 3.22627567 -1 4 C-0.67 2.68 -0.34 1.36 0 0 Z " fill="#ECEFF1" transform="translate(325,57)"/>
<path d="M0 0 C3.26981719 3.26981719 2.95194127 7.5236723 3 12 C2.15535845 15.63845591 1.62526301 17.37473699 -1 20 C-2.155 20.2475 -3.31 20.495 -4.5 20.75 C-5.655 21.1625 -6.81 21.575 -8 22 C-9.53146378 25.00594421 -9.53146378 25.00594421 -10 28 C-10.66 28 -11.32 28 -12 28 C-12.36042403 22.59363958 -12.36042403 22.59363958 -10.9375 20.25 C-8.15047582 18.45191988 -5.19057431 17.82718593 -2 17 C0.05922402 14.94077598 -0.58572421 10.78291876 -0.4375 7.9375 C-0.39431641 7.17888672 -0.35113281 6.42027344 -0.30664062 5.63867188 C-0.20026367 3.75934562 -0.09960066 1.87969756 0 0 Z " fill="#F1F3F4" transform="translate(193,31)"/>
<path d="M0 0 C0.74958984 0.00451172 1.49917969 0.00902344 2.27148438 0.01367188 C4.11852383 0.02543646 5.96552213 0.04337135 7.8125 0.0625 C8.9375 6.8125 8.9375 6.8125 7.8125 9.0625 C7.1525 8.7325 6.4925 8.4025 5.8125 8.0625 C6.1425 6.4125 6.4725 4.7625 6.8125 3.0625 C4.20722895 2.95457163 1.60641689 2.87525122 -1 2.8125 C-1.73798828 2.77898438 -2.47597656 2.74546875 -3.23632812 2.7109375 C-7.62773175 2.59628827 -7.62773175 2.59628827 -11.19921875 4.890625 C-12.39458646 7.11990643 -12.39458646 7.11990643 -12.1875 10.0625 C-12.8475 10.0625 -13.5075 10.0625 -14.1875 10.0625 C-14.55377907 4.56831395 -14.55377907 4.56831395 -12.875 2.25 C-8.90505192 -0.54366716 -4.62981238 -0.05256556 0 0 Z " fill="#D0D7DF" transform="translate(242.1875,33.9375)"/>
<path d="M0 0 C0.99 0.33 1.98 0.66 3 1 C2.67 2.32 2.34 3.64 2 5 C-4.6 5 -11.2 5 -18 5 C-18 9.29 -18 13.58 -18 18 C-18.66 18 -19.32 18 -20 18 C-20 13.38 -20 8.76 -20 4 C-13.4 4 -6.8 4 0 4 C0 2.68 0 1.36 0 0 Z " fill="#E6EAED" transform="translate(461,73)"/>
<path d="M0 0 C0.99 0 1.98 0 3 0 C3 1.65 3 3.3 3 5 C-4.26 5 -11.52 5 -19 5 C-19 8.96 -19 12.92 -19 17 C-19.66 17 -20.32 17 -21 17 C-21 12.71 -21 8.42 -21 4 C-14.07 4 -7.14 4 0 4 C0 2.68 0 1.36 0 0 Z " fill="#F0F3F4" transform="translate(462,56)"/>
<path d="M0 0 C0.99 0 1.98 0 3 0 C1.6577479 3.61375565 0.00622808 6.71538472 -2 10 C-2.97646484 11.64935547 -2.97646484 11.64935547 -3.97265625 13.33203125 C-4.66888791 14.49241734 -5.36550783 15.65257055 -6.0625 16.8125 C-6.41376953 17.40998047 -6.76503906 18.00746094 -7.12695312 18.62304688 C-8.02987619 20.11653966 -9.00923058 21.56327917 -10 23 C-10.66 23 -11.32 23 -12 23 C-10.45732102 17.54397151 -7.91247403 12.97776964 -5.0625 8.125 C-4.61970703 7.34125 -4.17691406 6.5575 -3.72070312 5.75 C-3.07198242 4.64011719 -3.07198242 4.64011719 -2.41015625 3.5078125 C-1.82439819 2.49678467 -1.82439819 2.49678467 -1.22680664 1.46533203 C-0.82196045 0.98177246 -0.41711426 0.49821289 0 0 Z " fill="#E7EBEE" transform="translate(363,56)"/>
<path d="M0 0 C0.33 0 0.66 0 1 0 C1.76776475 4.0752634 2.11902034 7.91005447 2.09765625 12.0546875 C2.09443359 13.16328125 2.09121094 14.271875 2.08789062 15.4140625 C2.07951172 16.55617188 2.07113281 17.69828125 2.0625 18.875 C2.05798828 20.0403125 2.05347656 21.205625 2.04882812 22.40625 C2.03708781 25.27088645 2.0206657 28.13541633 2 31 C1.67 31 1.34 31 1 31 C0.67 23.41 0.34 15.82 0 8 C-0.33 8.99 -0.66 9.98 -1 11 C-3.0625 12.1875 -3.0625 12.1875 -5 13 C-4.54554036 11.58208592 -4.08625056 10.16571954 -3.625 8.75 C-3.24214844 7.56664063 -3.24214844 7.56664063 -2.8515625 6.359375 C-2.04826333 4.13372042 -1.10288338 2.09068328 0 0 Z " fill="#BBC4D2" transform="translate(505,64)"/>
<path d="M0 0 C1.74216797 0.05414063 1.74216797 0.05414063 3.51953125 0.109375 C4.39996094 0.15578125 5.28039062 0.2021875 6.1875 0.25 C6.1875 0.58 6.1875 0.91 6.1875 1.25 C5.43984375 1.28738281 4.6921875 1.32476562 3.921875 1.36328125 C2.93703125 1.42902344 1.9521875 1.49476562 0.9375 1.5625 C-0.03703125 1.62050781 -1.0115625 1.67851563 -2.015625 1.73828125 C-5.10365451 2.30326989 -6.57211255 3.07798118 -8.8125 5.25 C-9.373568 8.9904533 -8.96012184 10.02856724 -6.8125 13.25 C-10.6875 11.375 -10.6875 11.375 -11.8125 10.25 C-12.1875 7.4375 -12.1875 7.4375 -11.8125 4.25 C-8.02057723 0.30272843 -5.37467905 -0.21715875 0 0 Z " fill="#E9ECEF" transform="translate(383.8125,59.75)"/>
<path d="M0 0 C0.89267578 0.00966797 1.78535156 0.01933594 2.70507812 0.02929688 C4.09823242 0.06700195 4.09823242 0.06700195 5.51953125 0.10546875 C6.45990234 0.11900391 7.40027344 0.13253906 8.36914062 0.14648438 C10.69068163 0.18183779 13.01106778 0.23118201 15.33203125 0.29296875 C15.00203125 0.95296875 14.67203125 1.61296875 14.33203125 2.29296875 C12.52605469 2.25816406 12.52605469 2.25816406 10.68359375 2.22265625 C9.1080791 2.20390012 7.53255777 2.18569976 5.95703125 2.16796875 C5.16296875 2.15121094 4.36890625 2.13445313 3.55078125 2.1171875 C1.4771111 2.09961402 -0.59680116 2.18961707 -2.66796875 2.29296875 C-5.02749969 4.65249969 -5.15938288 6.07192492 -5.66796875 9.29296875 C-6.32796875 9.29296875 -6.98796875 9.29296875 -7.66796875 9.29296875 C-8.03431772 3.79773415 -8.03431772 3.79773415 -6.44799805 1.61206055 C-4.15083472 -0.09025374 -2.83858641 -0.0542405 0 0 Z " fill="#F5F6F6" transform="translate(152.66796875,34.70703125)"/>
<path d="M0 0 C3 4 3 4 3 7 C2.34 7 1.68 7 1 7 C1 14.92 1 22.84 1 31 C0.67 31 0.34 31 0 31 C0 20.77 0 10.54 0 0 Z " fill="#DDE2E6" transform="translate(474,64)"/>
<path d="M0 0 C5.88653193 0.67274651 8.76559108 3.70948158 12.75 7.875 C15.08171862 11.11349808 15.71933676 13.07071463 16 17 C15.01 17.33 14.02 17.66 13 18 C13.12375 17.13375 13.2475 16.2675 13.375 15.375 C12.90215156 11.11936403 11.4484422 9.99726967 8.3125 7.296875 C7.879375 6.86890625 7.44625 6.4409375 7 6 C7 5.34 7 4.68 7 4 C6.21625 3.71125 5.4325 3.4225 4.625 3.125 C2 2 2 2 0 0 Z " fill="#D8DDE4" transform="translate(177,14)"/>
<path d="M0 0 C0.99 0 1.98 0 3 0 C3 4.95 3 9.9 3 15 C2.67 15 2.34 15 2 15 C2 13.35 2 11.7 2 10 C1.34 10 0.68 10 0 10 C0 6.7 0 3.4 0 0 Z " fill="#D5DAE3" transform="translate(74,75)"/>
<path d="M0 0 C0.66 0 1.32 0 2 0 C0.125 3.875 0.125 3.875 -1 5 C-3.69654854 5.07319621 -6.36691458 5.09242537 -9.0625 5.0625 C-9.82111328 5.05798828 -10.57972656 5.05347656 -11.36132812 5.04882812 C-13.24091871 5.0370068 -15.12046899 5.01907078 -17 5 C-17.33 4.34 -17.66 3.68 -18 3 C-16.95199219 3.03480469 -15.90398437 3.06960937 -14.82421875 3.10546875 C-13.44532853 3.13360937 -12.06642098 3.16090924 -10.6875 3.1875 C-9.99720703 3.21263672 -9.30691406 3.23777344 -8.59570312 3.26367188 C-4.55857699 3.38697888 -4.55857699 3.38697888 -1.14453125 1.48828125 C-0.76683594 0.99714844 -0.38914062 0.50601563 0 0 Z " fill="#F5F6F6" transform="translate(110,91)"/>
<path d="M0 0 C0.99 0 1.98 0 3 0 C3.33 1.98 3.66 3.96 4 6 C1.03 5.67 -1.94 5.34 -5 5 C-5 4.67 -5 4.34 -5 4 C-3.35 4 -1.7 4 0 4 C0 2.68 0 1.36 0 0 Z " fill="#E1E5EA" transform="translate(395,57)"/>
<path d="M0 0 C2.015625 1.01953125 2.015625 1.01953125 4 3 C4.13170447 5.73885424 4.06601942 8.00133489 3.75 10.6875 C3.68425781 11.38939453 3.61851562 12.09128906 3.55078125 12.81445312 C3.38598044 14.54486164 3.19545358 16.27278524 3 18 C2.67 18 2.34 18 2 18 C1.93941406 17.03578125 1.87882813 16.0715625 1.81640625 15.078125 C1.73261719 13.81484375 1.64882812 12.5515625 1.5625 11.25 C1.48128906 9.99703125 1.40007812 8.7440625 1.31640625 7.453125 C1.07484478 4.81682447 0.75716066 2.51962706 0 0 Z " fill="#8394AD" transform="translate(187,23)"/>
<path d="M0 0 C0.66 0.33 1.32 0.66 2 1 C1.360625 1.45375 0.72125 1.9075 0.0625 2.375 C-2.98225157 6.25013836 -2.81649865 10.1922647 -3 15 C-3.33 15 -3.66 15 -4 15 C-4.63019694 4.84682713 -4.63019694 4.84682713 -2 1.3125 C-1.34 0.879375 -0.68 0.44625 0 0 Z " fill="#455D86" transform="translate(206,13)"/>
<path d="M0 0 C2.125 0.375 2.125 0.375 4 1 C3.01 1.66 2.02 2.32 1 3 C0.27034634 5.56282742 0.27034634 5.56282742 0 8 C-0.66 8 -1.32 8 -2 8 C-2.125 5.125 -2.125 5.125 -2 2 C-1.34 1.34 -0.68 0.68 0 0 Z " fill="#F9FAFA" transform="translate(183,51)"/>
<path d="M0 0 C2 4 2 4 1.625 6.25 C1.41875 6.8275 1.2125 7.405 1 8 C0.67 7.67 0.34 7.34 0 7 C-0.99 7.99 -1.98 8.98 -3 10 C-2.01 6.7 -1.02 3.4 0 0 Z " fill="#3B547F" transform="translate(501,63)"/>
<path d="M0 0 C-0.4640625 0.8353125 -0.4640625 0.8353125 -0.9375 1.6875 C-2.05761821 4.12540433 -2.56037364 6.36224186 -3 9 C-3.66 9 -4.32 9 -5 9 C-5.36666667 3.5 -5.36666667 3.5 -3.625 1.125 C-2 0 -2 0 0 0 Z " fill="#F4F6F6" transform="translate(233,35)"/>
<path d="M0 0 C0.625 1.8125 0.625 1.8125 1 4 C0.01 5.485 0.01 5.485 -1 7 C-1.66 7 -2.32 7 -3 7 C-2.38722388 4.03824877 -1.74627478 2.61941217 0 0 Z " fill="#08285E" transform="translate(501,69)"/>
</svg>
